<svg id="Default" xmlns="http://www.w3.org/2000/svg" xmlns:xlink="http://www.w3.org/1999/xlink" viewBox="0 0 708.66 708.66"><defs><style>.cls-1{fill:#fff;}.cls-2{clip-path:url(#clip-path);}</style><clipPath id="clip-path"><rect class="cls-1" width="708.66" height="708.66"/></clipPath></defs><rect class="cls-1" width="708.66" height="708.66"/><g class="cls-2"><path d="M533.53,355.65H445.34v20.13h0v78.91h58.81v19.73H430.64V395.5H401.23V435H385.35V395.5H356V435H340.36V395.5H311V435H294.78v-80.1H221.86v62h0v39.45h43.54v18.15H163V159.89h.07v-3h382.5v39.46h0V216H575V176.49h0V117.41H133.7v40.66h-.07V513.88H294.76V474.42H401.21v39.46H533.53V415.24H474.74V395.1h70.87V532.89h-412v39.46H575V355.68l-41.47,0Zm-268.59,58h-14.7V393.87h14.7ZM575,235.58v78.91h0v20.13h-88.2l-29.41.19H398.59V295.36H457.4l29.41-.2h58.81V275H445.35v-57.8H428V276h-73.8V236.57h44.4V217.23h-44.4V177.78H428l17.36-.21h29.4V217h0v18.55H575ZM310.08,295v39.46h29.4V176.59H177.75v276.2h29.41V413.33h0V216.05h14.71V334.42h73.51V235.78H251.27V216.05h58.81V295ZM266,275.23V295h-14.7V275.23Z"/></g></svg>